<?xml version="1.0" encoding="utf-8"?>
<!-- Generator: Adobe Illustrator 16.0.0, SVG Export Plug-In . SVG Version: 6.00 Build 0)  -->
<!DOCTYPE svg PUBLIC "-//W3C//DTD SVG 1.1//EN" "http://www.w3.org/Graphics/SVG/1.1/DTD/svg11.dtd">
<svg version="1.1" id="Layer_1" xmlns="http://www.w3.org/2000/svg" xmlns:xlink="http://www.w3.org/1999/xlink" x="0px" y="0px"
	 width="512px" height="512px" fill="white" viewBox="0 0 512 512" enable-background="new 0 0 512 512" xml:space="preserve">
<path d="M448,215.859c0-26.313-21.219-47.625-47.438-47.938L268.141,13.453c-6.063-7.094-18.219-7.094-24.281,0L111.469,167.922
	C85.203,168.203,64,189.547,64,215.859H0l64,288h384l64-288H448z M143.391,179.797L256,48.422l112.594,131.375
	C358.5,188.609,352,201.422,352,215.859H160C160,201.422,153.484,188.609,143.391,179.797z M96,471.859h-6.328l-7.109-32H96V471.859
	z M96,407.859H75.453l-7.109-32H96V407.859z M96,343.859H61.219l-7.109-32H96V343.859z M96,279.859H47l-7.109-32H96V279.859z
	 M192,471.859h-64v-32h64V471.859z M192,407.859h-64v-32h64V407.859z M192,343.859h-64v-32h64V343.859z M192,279.859h-64v-32h64
	V279.859z M288,471.859h-64v-32h64V471.859z M288,407.859h-64v-32h64V407.859z M288,343.859h-64v-32h64V343.859z M288,279.859h-64
	v-32h64V279.859z M384,471.859h-64v-32h64V471.859z M384,407.859h-64v-32h64V407.859z M384,343.859h-64v-32h64V343.859z
	 M384,279.859h-64v-32h64V279.859z M422.344,471.859H416v-32h13.438L422.344,471.859z M436.563,407.859H416v-32h27.656
	L436.563,407.859z M450.781,343.859H416v-32h41.875L450.781,343.859z M416,279.859v-32h56.094l-7.094,32H416z"/>
</svg>
