<?xml version="1.0" encoding="iso-8859-1"?>
<!-- Generator: Adobe Illustrator 19.0.0, SVG Export Plug-In . SVG Version: 6.00 Build 0)  -->
<!-- License: CC0. Made by SVG Repo: https://www.svgrepo.com/svg/297197/watermelon -->
<svg version="1.1" id="Layer_1" xmlns="http://www.w3.org/2000/svg" xmlns:xlink="http://www.w3.org/1999/xlink" x="0px" y="0px"
	 viewBox="0 0 512 512" style="enable-background:new 0 0 512 512;" xml:space="preserve" width="40px" height="40px">
<path style="fill:#4BDD6B;" d="M382.784,133.224h118.767c0,135.614-109.937,245.551-245.551,245.551S10.449,268.839,10.449,133.224
	h10.514h294.07H382.784z"/>
<path style="fill:#F7222B;" d="M456.62,133.224c0,110.8-89.82,200.62-200.62,200.62s-200.62-89.82-200.62-200.62H456.62z"/>
<path d="M380.343,193.294c5.77,0,10.449-4.678,10.449-10.449v-0.651c0-5.771-4.679-10.449-10.449-10.449
	s-10.449,4.678-10.449,10.449v0.651C369.894,188.616,374.573,193.294,380.343,193.294z"/>
<path d="M307.722,201.002v0.651c0,5.771,4.679,10.449,10.449,10.449s10.449-4.678,10.449-10.449v-0.651
	c0-5.771-4.679-10.449-10.449-10.449S307.722,195.231,307.722,201.002z"/>
<path d="M245.551,182.194v0.651c0,5.771,4.679,10.449,10.449,10.449c5.77,0,10.449-4.678,10.449-10.449v-0.651
	c0-5.771-4.679-10.449-10.449-10.449C250.23,171.745,245.551,176.423,245.551,182.194z"/>
<path d="M183.38,201.002v0.651c0,5.771,4.679,10.449,10.449,10.449s10.449-4.678,10.449-10.449v-0.651
	c0-5.771-4.679-10.449-10.449-10.449S183.38,195.231,183.38,201.002z"/>
<path d="M121.208,182.194v0.651c0,5.771,4.679,10.449,10.449,10.449s10.449-4.678,10.449-10.449v-0.651
	c0-5.771-4.679-10.449-10.449-10.449S121.208,176.423,121.208,182.194z"/>
<path d="M345.339,240.524v0.651c0,5.771,4.679,10.449,10.449,10.449s10.449-4.678,10.449-10.449v-0.651
	c0-5.771-4.679-10.449-10.449-10.449S345.339,234.753,345.339,240.524z"/>
<path d="M283.167,259.332v0.651c0,5.771,4.679,10.449,10.449,10.449s10.449-4.678,10.449-10.449v-0.651
	c0-5.771-4.679-10.449-10.449-10.449S283.167,253.561,283.167,259.332z"/>
<path d="M220.996,240.524v0.651c0,5.771,4.679,10.449,10.449,10.449s10.449-4.678,10.449-10.449v-0.651
	c0-5.771-4.679-10.449-10.449-10.449S220.996,234.753,220.996,240.524z"/>
<path d="M158.824,259.332v0.651c0,5.771,4.679,10.449,10.449,10.449s10.449-4.678,10.449-10.449v-0.651
	c0-5.771-4.679-10.449-10.449-10.449S158.824,253.561,158.824,259.332z"/>
<path d="M348.179,143.673h0.135c5.77,0,10.449-4.678,10.449-10.449s-4.679-10.449-10.449-10.449h-0.135
	c-5.77,0-10.449,4.678-10.449,10.449S342.408,143.673,348.179,143.673z"/>
<path d="M501.551,122.776H382.784c-5.77,0-10.449,4.678-10.449,10.449s4.679,10.449,10.449,10.449h63.097
	C440.437,243.693,357.355,323.396,256,323.396S71.563,243.693,66.119,143.673h248.913c5.77,0,10.449-4.678,10.449-10.449
	s-4.679-10.449-10.449-10.449H10.449C4.679,122.776,0,127.454,0,133.224c0,68.38,26.628,132.668,74.981,181.019
	S187.62,389.224,256,389.224s132.668-26.628,181.019-74.981S512,201.605,512,133.224C512,127.455,507.321,122.776,501.551,122.776z
	 M256,368.327c-126.139,0-229.394-99.841-234.872-224.653h24.063C50.656,255.223,143.12,344.294,256,344.294
	s205.344-89.071,210.809-200.62h24.063C485.394,268.487,382.139,368.327,256,368.327z" />
</svg>
